<?xml version="1.0" standalone="no"?>
<!DOCTYPE svg PUBLIC "-//W3C//DTD SVG 20010904//EN"
 "http://www.w3.org/TR/2001/REC-SVG-20010904/DTD/svg10.dtd">
<svg version="1.0" xmlns="http://www.w3.org/2000/svg"
 width="2400.000000pt" height="2400.000000pt" viewBox="0 0 2400.000000 2400.000000"
 preserveAspectRatio="xMidYMid meet">
<metadata>
Created by potrace 1.16, written by Peter Selinger 2001-2019
</metadata>
<g transform="translate(0.000000,2400.000000) scale(0.100000,-0.100000)"
fill="#000000" stroke="none">
<path d="M11605 21483 c-27 -2 -52 -8 -55 -12 -3 -4 -77 -21 -165 -39 -342
-66 -686 -199 -992 -381 -56 -34 -114 -61 -128 -61 -24 0 -25 -3 -25 -55 0
-42 -5 -60 -20 -75 l-20 -20 29 0 c20 0 63 -25 147 -88 176 -130 328 -265 527
-466 l179 -181 105 55 c99 51 126 71 180 131 12 15 95 57 203 103 173 74 184
78 245 74 50 -2 68 1 81 14 15 15 10 18 -80 47 -378 121 -981 249 -1348 286
l-68 7 0 56 0 55 98 -6 c395 -27 990 -139 1431 -272 47 -14 86 -25 88 -25 2 0
3 10 3 23 0 13 15 37 36 58 20 18 55 59 79 89 l43 56 124 27 c68 15 140 27
161 27 33 0 37 3 37 25 0 32 -2 32 -240 44 -464 24 -855 21 -1217 -9 -65 -5
-164 -13 -220 -16 l-103 -7 0 56 0 57 -40 0 -40 0 0 55 c0 30 1 55 3 55 2 0
82 20 178 44 563 144 1016 208 1714 243 150 7 150 7 70 15 -95 8 -928 18
-1000 11z"/>
<path d="M10730 21403 c-14 -2 -95 -15 -180 -29 -254 -40 -480 -86 -494 -99
-12 -12 -8 -113 9 -232 l6 -43 60 0 59 0 0 48 0 49 128 75 c147 88 254 142
379 194 48 20 90 38 92 40 5 5 -22 3 -59 -3z"/>
<path d="M12507 21339 c-396 -16 -805 -65 -1200 -144 -170 -34 -559 -127 -554
-132 2 -1 77 4 168 12 270 23 575 35 914 35 682 0 1151 -44 1913 -177 38 -7
39 -2 11 74 -39 102 -185 228 -336 288 -47 19 -90 25 -228 34 -257 16 -480 19
-688 10z"/>
<path d="M9641 21185 c-112 -30 -274 -76 -360 -102 l-156 -48 255 -6 c140 -3
301 -12 358 -19 95 -12 102 -15 102 -35 l0 -22 53 20 52 21 -25 123 c-24 119
-26 123 -50 122 -14 0 -117 -25 -229 -54z"/>
<path d="M14010 21106 c0 -2 7 -21 16 -41 8 -21 19 -74 22 -117 l7 -79 250
-64 c794 -200 1570 -501 2275 -882 113 -61 216 -114 230 -118 24 -8 24 -7 -6
27 -17 19 -48 64 -69 99 -77 130 -138 173 -330 229 -120 36 -173 57 -222 90
-18 12 -33 17 -33 11 0 -47 -345 48 -631 174 -177 77 -359 195 -359 231 0 19
-32 34 -240 107 -102 36 -234 86 -295 111 -80 33 -124 46 -160 46 -41 0 -82
14 -210 70 -88 39 -177 80 -198 90 -38 20 -47 23 -47 16z"/>
<path d="M12792 20910 c32 -16 62 -38 67 -49 15 -27 51 -37 203 -57 104 -13
140 -22 163 -40 19 -14 58 -26 105 -34 108 -17 167 -37 232 -81 l57 -38 29 37
c37 47 82 119 82 130 0 5 -15 12 -32 15 -18 3 -121 22 -228 41 -184 34 -544
87 -675 100 l-60 6 57 -30z"/>
<path d="M9060 20905 c-219 -24 -415 -67 -599 -130 -41 -14 -81 -25 -88 -25
-31 0 -699 -307 -690 -317 2 -2 55 16 118 41 279 107 716 237 1049 311 226 50
555 105 627 105 l63 0 0 -54 0 -54 -67 -8 c-40 -5 -57 -10 -41 -12 25 -3 27
-7 30 -53 l3 -49 80 50 c69 43 87 50 133 50 l52 0 0 -53 c0 -49 -2 -54 -32
-71 -84 -49 -348 -230 -488 -334 -462 -347 -883 -749 -1288 -1232 l-130 -155
81 -7 c278 -22 782 1 1288 59 l146 16 27 146 c112 597 301 1200 484 1544 l47
87 52 0 53 0 0 -48 c0 -37 -14 -80 -59 -183 -102 -233 -203 -546 -281 -873
-47 -197 -103 -466 -98 -470 1 -2 37 3 78 11 41 8 111 18 155 22 l80 8 -65 1
c-37 1 -71 7 -78 14 -7 7 -12 37 -12 68 0 51 3 58 25 68 14 7 36 12 49 12 12
0 35 14 52 31 16 17 75 55 131 85 92 50 107 55 155 52 l53 -3 3 -51 c3 -52 3
-52 47 -67 36 -11 47 -12 55 -1 8 9 6 14 -9 19 -30 9 -30 103 -1 130 11 10 20
30 20 44 1 16 16 43 39 69 37 40 41 42 96 42 81 0 95 -10 95 -69 0 -26 -7 -70
-15 -97 -23 -76 -20 -93 15 -100 l30 -6 0 -74 c0 -84 5 -88 67 -54 21 11 44
20 51 20 9 0 10 5 2 19 -12 23 -12 134 -1 203 7 43 6 47 -14 52 -25 6 -35 39
-35 117 0 63 12 69 139 69 86 0 101 2 101 16 0 9 9 29 21 45 16 22 28 29 55
29 58 0 45 33 -62 155 -189 216 -464 482 -641 619 -60 47 -63 51 -63 93 0 38
-3 44 -17 39 -92 -28 -288 -37 -311 -14 -7 7 -12 28 -12 49 l0 36 -87 7 c-49
3 -131 11 -183 16 -127 13 -339 11 -480 -5z"/>
<path d="M9069 20700 c-538 -118 -988 -259 -1442 -453 -295 -125 -753 -356
-816 -411 -49 -43 -141 -169 -178 -243 -32 -64 -38 -87 -38 -139 0 -34 3 -65
6 -69 4 -3 69 37 145 88 784 532 1501 901 2274 1171 317 111 321 116 49 56z"/>
<path d="M14020 20708 c0 -21 -54 -121 -95 -177 l-44 -59 87 -29 87 -29 3 -53
c2 -39 -1 -56 -12 -64 -14 -11 -14 -21 -1 -104 20 -122 33 -158 94 -257 61
-99 66 -143 26 -231 l-24 -55 67 -42 c504 -317 1043 -728 1506 -1149 87 -79
164 -148 171 -153 8 -6 64 26 176 102 292 198 530 397 691 577 107 119 117
135 88 135 -27 0 -95 63 -110 103 -17 42 -48 67 -86 67 -17 0 -46 11 -65 25
-19 14 -50 36 -69 48 -28 18 -36 30 -38 58 -2 27 -14 47 -53 84 -45 46 -49 53
-49 97 0 43 -3 50 -26 58 -15 6 -35 21 -45 34 -10 13 -38 28 -62 34 -55 14
-142 71 -240 156 -63 55 -77 73 -77 96 0 22 -8 33 -30 47 -17 10 -33 27 -36
39 -13 49 -718 329 -1214 482 -332 102 -620 176 -620 160z m905 -449 c69 -39
73 -43 94 -102 16 -46 21 -85 21 -153 0 -119 -6 -127 -91 -121 -82 6 -215 26
-255 38 -17 5 -73 9 -125 9 l-95 0 -32 53 c-25 42 -32 64 -32 105 l0 52 80 0
79 0 21 73 c12 39 23 78 26 86 4 11 26 13 121 8 113 -6 118 -8 188 -48z"/>
<path d="M9350 20619 c-156 -54 -220 -81 -220 -92 0 -7 -37 -27 -83 -46 -765
-316 -1583 -763 -2199 -1202 -40 -29 -79 -49 -100 -51 l-33 -3 50 -37 c133
-98 361 -180 630 -227 199 -34 167 -44 270 82 164 202 336 390 559 612 370
370 703 646 1091 905 106 70 134 91 125 89 -3 0 -43 -14 -90 -30z"/>
<path d="M11733 20075 c-6 -11 -13 -58 -15 -105 -3 -60 -12 -103 -30 -148 -14
-34 -22 -65 -17 -68 5 -3 9 -38 9 -78 l0 -73 90 3 c49 1 106 8 127 14 58 19
366 143 478 193 151 67 176 80 172 91 -2 6 -24 21 -48 34 -64 32 -163 39 -264
17 -129 -27 -290 -31 -375 -9 -83 21 -102 39 -110 102 -5 41 -7 44 -17 27z"/>
<path d="M12720 19694 c-105 -50 -338 -151 -414 -179 l-48 -19 43 -11 c24 -7
55 -17 70 -23 33 -13 77 -80 81 -123 l3 -34 100 -7 c73 -6 133 -18 220 -46
l120 -38 0 -103 c0 -100 -1 -103 -27 -125 -23 -18 -28 -30 -28 -64 l0 -42 -57
0 -58 0 46 -29 47 -30 0 -145 0 -146 -49 0 -49 0 0 -60 0 -60 -206 0 -206 0
31 -52 30 -53 71 -3 71 -3 -2 -82 c-3 -105 20 -159 77 -177 34 -12 38 -11 56
11 33 43 93 156 128 244 l35 85 55 0 55 0 122 -138 c67 -75 140 -155 162 -176
33 -33 43 -51 57 -113 l18 -73 49 -15 c28 -8 73 -28 102 -44 40 -23 74 -32
151 -41 l99 -11 60 -58 c33 -31 93 -86 133 -120 67 -59 72 -66 73 -105 0 -22
6 -62 12 -87 l12 -47 134 54 c371 149 678 287 1013 455 189 94 548 287 566
304 2 2 -32 37 -75 78 -356 338 -844 734 -1256 1021 -114 79 -114 88 5 -135
73 -135 78 -150 78 -206 l0 -60 -61 -38 -62 -38 -96 8 c-110 8 -110 8 -211 -1
l-76 -6 -133 81 c-142 87 -340 237 -561 423 -117 98 -140 123 -177 188 -23 41
-42 83 -43 93 0 13 -9 17 -39 17 -30 0 -49 9 -90 42 -43 35 -51 47 -51 75 0
18 -3 33 -7 32 -5 0 -51 -21 -103 -45z"/>
<path d="M6350 19550 c-14 -11 -41 -20 -60 -20 -30 0 -60 -20 -205 -136 -284
-228 -467 -394 -766 -693 -269 -270 -479 -499 -663 -726 -129 -159 -426 -558
-426 -574 0 -7 -13 -37 -30 -66 -74 -130 -116 -297 -99 -392 11 -58 36 -130
43 -122 2 2 47 67 101 144 54 77 162 226 240 330 528 705 949 1137 1757 1804
124 102 126 104 117 135 -14 47 -11 225 5 284 7 29 13 52 12 52 -1 0 -12 -9
-26 -20z"/>
<path d="M17320 19175 l0 -45 -43 0 c-42 0 -45 -2 -72 -51 -142 -263 -601
-687 -1027 -952 l-67 -42 157 -160 c650 -661 1262 -1449 1760 -2269 l88 -144
165 110 c396 265 727 539 957 791 52 56 98 111 104 123 8 17 4 33 -20 80 -19
37 -34 90 -42 139 -6 44 -22 128 -35 188 -22 94 -34 124 -102 243 -72 127 -80
137 -135 170 -33 20 -60 35 -61 33 -2 -2 -7 -17 -13 -34 -9 -28 -13 -30 -64
-33 l-55 -3 -29 46 c-15 25 -77 91 -136 146 -106 98 -135 131 -337 374 -55 66
-141 156 -191 200 -86 76 -91 82 -92 120 0 23 -5 46 -10 51 -6 6 -10 41 -8 80
3 65 4 69 29 74 15 3 49 30 79 63 50 55 52 58 40 88 -7 16 -60 75 -118 130
-83 79 -132 114 -230 171 l-124 71 -97 6 c-106 8 -137 21 -171 76 -14 23 -20
50 -20 96 0 62 -1 65 -35 87 -19 12 -37 22 -40 22 -3 0 -5 -20 -5 -45z"/>
<path d="M11043 19098 c-18 -5 -33 -11 -33 -14 0 -2 14 -31 30 -64 30 -60 30
-60 75 -60 43 0 47 -2 75 -47 17 -26 30 -42 30 -36 0 5 13 30 30 54 16 24 30
49 30 55 0 7 -28 9 -84 6 l-85 -4 -18 59 -18 60 -32 -9z"/>
<path d="M11608 18984 c-1 -36 0 -68 5 -71 4 -2 7 -33 7 -68 0 -52 -6 -77 -32
-129 -28 -58 -36 -66 -84 -85 -40 -17 -55 -29 -63 -52 -11 -33 -15 -30 84 -67
42 -16 55 -27 77 -68 20 -35 28 -63 28 -101 l0 -51 -50 -17 c-50 -17 -167 -18
-200 -2 -11 5 -23 -7 -44 -47 -25 -46 -37 -57 -82 -75 -35 -15 -68 -21 -101
-19 -44 3 -48 5 -51 31 -3 26 -6 27 -56 27 -36 0 -58 -5 -66 -15 -7 -8 -36
-22 -64 -30 -47 -14 -54 -20 -84 -75 -55 -101 -146 -204 -330 -372 -98 -89
-194 -181 -215 -205 -36 -40 -37 -43 -16 -43 22 0 22 -1 15 -105 l-7 -105 75
0 c58 0 95 -7 163 -31 48 -16 95 -32 104 -35 8 -3 20 -19 26 -35 11 -28 13
-29 83 -29 62 0 76 -4 106 -26 34 -27 35 -27 117 -15 45 6 112 11 150 11 l67
0 0 -58 c0 -31 -9 -89 -20 -127 -27 -95 -27 -95 21 -95 l42 0 -6 -91 c-3 -50
-10 -96 -16 -102 -6 -8 -5 -18 5 -31 14 -19 14 -19 38 3 13 12 36 45 52 74 29
51 29 55 34 252 l5 199 72 31 c65 27 81 41 182 150 126 137 121 118 69 265
-17 47 -33 113 -35 146 -4 53 0 72 28 135 31 73 32 75 35 262 2 104 8 196 13
205 10 20 255 92 309 92 l33 0 -28 50 -28 51 -20 -26 c-29 -35 -101 -35 -179
1 l-56 25 0 54 c0 79 32 158 70 172 16 6 30 15 30 20 0 10 -197 313 -204 313
-2 0 -6 -30 -8 -66z"/>
<path d="M6359 18897 c-561 -474 -1139 -1089 -1684 -1792 -95 -122 -336 -479
-352 -521 -7 -18 32 -53 142 -127 239 -161 601 -289 1051 -372 131 -24 426
-66 430 -62 1 1 43 104 93 228 109 272 180 433 317 722 57 120 104 222 104
227 0 4 -14 13 -30 20 -17 7 -60 44 -95 83 -65 69 -65 70 -65 129 0 48 8 79
46 166 91 210 284 577 406 772 110 177 95 161 168 175 19 4 105 31 190 60 85
29 191 63 235 75 94 26 110 37 64 44 -321 50 -424 73 -559 122 -89 32 -231
102 -279 138 -19 14 -38 26 -41 26 -4 0 -67 -51 -141 -113z"/>
<path d="M10430 18953 c-36 -8 -66 -17 -68 -18 -2 -1 11 -16 28 -33 20 -21 30
-40 30 -61 0 -17 3 -31 6 -31 4 0 22 14 41 30 30 27 41 30 98 30 l65 0 0 45
c0 41 -2 45 -24 45 -13 0 -43 2 -67 4 -24 3 -73 -2 -109 -11z"/>
<path d="M18388 18873 l-5 -48 95 -90 c80 -77 101 -103 139 -180 25 -49 70
-121 100 -159 77 -99 403 -430 403 -410 0 9 -29 78 -65 154 -55 117 -65 146
-65 192 0 48 -4 58 -33 86 -18 18 -40 32 -49 32 -18 0 -78 70 -78 92 0 19
-342 358 -362 358 -9 0 -20 5 -23 10 -3 6 -17 10 -30 10 -20 0 -24 -6 -27 -47z"/>
<path d="M9085 18735 c-5 -2 -102 -11 -215 -20 -280 -22 -723 -34 -967 -26
l-202 6 27 -22 c15 -12 66 -38 115 -58 74 -30 99 -35 165 -35 104 0 170 -23
189 -67 12 -30 16 -32 46 -26 17 3 57 22 87 41 52 33 57 34 123 29 63 -6 77
-3 187 38 65 23 135 55 156 69 46 31 144 38 144 11 0 -12 13 -15 60 -15 50 0
60 -3 60 -17 0 -16 8 -18 58 -15 37 2 72 -2 94 -11 l36 -15 4 38 3 39 -45 3
c-41 3 -45 6 -48 31 -3 23 -8 27 -35 26 -18 0 -36 -2 -42 -4z"/>
<path d="M15800 17898 c-362 -214 -1016 -522 -1547 -729 -90 -34 -161 -65
-158 -67 2 -3 22 3 45 12 22 9 66 16 98 16 l58 0 22 -74 c20 -69 26 -78 92
-137 47 -42 70 -69 70 -84 0 -20 7 -23 58 -29 270 -32 631 -127 891 -238 769
-324 1365 -884 1636 -1538 15 -36 31 -69 35 -74 9 -9 372 178 625 323 87 51
161 93 163 95 1 2 -29 57 -69 122 -425 704 -929 1386 -1468 1984 -206 229
-440 470 -455 469 -6 0 -49 -23 -96 -51z"/>
<path d="M13660 16943 c-8 -3 -55 -29 -105 -58 -57 -34 -136 -68 -217 -95
-126 -41 -127 -42 -117 -66 25 -67 18 -66 136 -24 60 21 149 48 198 60 l91 21
18 72 c10 40 21 78 23 85 5 13 -2 14 -27 5z"/>
<path d="M3822 16766 c-484 -826 -854 -1757 -1057 -2661 -46 -207 -47 -211
-36 -296 6 -47 19 -109 29 -138 l18 -52 38 153 c258 1028 517 1663 1078 2641
75 131 78 138 65 165 -30 58 -49 137 -56 223 l-6 89 -73 -124z"/>
<path d="M4083 16188 c-474 -816 -752 -1491 -987 -2398 -38 -148 -116 -473
-116 -485 0 -10 178 -149 256 -200 113 -75 354 -191 519 -250 339 -122 807
-227 1245 -280 74 -9 145 -18 158 -21 21 -4 22 -8 22 -136 l0 -131 -107 6
c-124 8 -463 55 -656 93 -641 123 -1101 298 -1418 537 l-86 64 -32 -251 c-57
-450 -91 -841 -91 -1036 l0 -90 -45 0 -45 0 0 -125 0 -125 43 0 44 0 7 -157
c19 -432 77 -906 168 -1373 l42 -215 70 -61 c415 -357 1114 -598 2115 -729 97
-12 177 -22 178 -21 0 0 -10 57 -23 126 -152 784 -224 1557 -224 2393 l0 357
53 0 c53 0 54 0 72 -41 14 -29 26 -42 46 -46 54 -11 58 -32 63 -428 10 -703
82 -1403 218 -2110 22 -115 43 -223 46 -238 2 -17 13 -32 26 -36 25 -10 273
-27 601 -42 309 -15 1287 -6 1650 15 555 32 1243 90 1260 108 3 3 -8 35 -26
70 l-32 65 -66 -4 c-48 -3 -97 3 -181 22 -188 42 -288 62 -410 80 l-115 16
-172 147 c-151 130 -180 150 -246 175 l-75 28 -103 -41 c-119 -46 -166 -50
-297 -24 l-83 17 -93 141 c-279 422 -543 903 -766 1401 -133 294 -345 879
-435 1200 -178 629 -283 1227 -326 1850 -6 94 -12 329 -13 522 l-1 353 -52 0
-53 0 0 60 c0 64 73 320 187 657 l59 172 -41 5 c-477 59 -765 119 -1066 222
-217 74 -421 179 -546 280 -23 19 -43 34 -45 34 -2 0 -36 -55 -75 -122z m1392
-3712 l60 -23 3 -96 3 -97 -84 0 c-46 0 -105 3 -131 6 l-46 7 0 107 c0 59 3
110 7 113 15 16 130 5 188 -17z m-227 -515 c15 -50 15 -124 0 -139 -7 -7 -36
-12 -65 -12 l-53 0 0 95 0 95 53 0 c54 0 54 0 65 -39z"/>
<path d="M19435 16179 c-198 -229 -590 -551 -992 -818 l-173 -114 39 -71 c526
-961 938 -2004 1177 -2978 21 -87 42 -158 47 -158 4 0 89 54 187 121 295 198
657 477 653 503 -1 6 -9 31 -18 55 -9 24 -20 79 -26 122 -13 104 -31 146 -73
166 -51 24 -69 108 -46 211 8 34 6 67 -9 150 -11 59 -23 140 -26 181 -9 106
-91 326 -145 390 -29 34 -40 56 -40 79 0 37 -34 110 -90 192 -62 91 -77 130
-85 215 -10 110 -34 245 -99 551 -31 143 -63 319 -72 390 -8 71 -27 170 -40
219 -28 105 -30 159 -8 251 17 75 8 165 -28 284 -18 57 -54 141 -61 140 -1 -1
-33 -37 -72 -81z"/>
<path d="M17925 15043 c-140 -83 -431 -241 -602 -327 -73 -36 -133 -72 -133
-79 0 -6 9 -72 20 -146 88 -597 24 -1154 -185 -1624 -241 -540 -666 -989
-1342 -1418 -181 -115 -253 -152 -372 -190 -39 -13 -71 -27 -71 -31 0 -5 38
-160 84 -346 46 -185 101 -408 121 -494 20 -87 40 -158 44 -158 4 0 92 29 196
64 1334 448 2539 975 3478 1518 75 44 137 84 137 89 0 18 -71 293 -125 484
-175 620 -413 1261 -690 1860 -135 291 -431 866 -445 864 -3 -1 -54 -30 -115
-66z"/>
<path d="M11427 14151 c-18 -68 -20 -70 -62 -86 l-43 -17 19 -66 c10 -37 19
-98 19 -135 l0 -69 -107 -160 -108 -161 -145 -117 c-131 -106 -480 -428 -488
-451 -2 -5 9 -6 25 -4 391 72 1047 206 1058 217 3 2 -7 38 -21 79 -83 243
-125 509 -127 816 -1 123 -2 223 -2 223 0 0 -9 -31 -18 -69z"/>
<path d="M2626 13363 c-3 -10 -17 -106 -31 -213 -77 -594 -93 -1289 -43 -1845
l13 -140 6 430 c8 533 35 919 104 1452 l25 192 -34 71 c-25 51 -36 66 -40 53z"/>
<path d="M11425 12770 c-282 -59 -691 -137 -970 -185 -171 -30 -188 -39 -178
-103 3 -20 27 -93 54 -162 26 -69 62 -180 79 -247 40 -161 39 -233 -3 -428
l-33 -150 -40 -3 c-21 -2 -67 -1 -102 3 -63 7 -64 8 -161 96 l-98 90 -46 127
c-52 140 -58 196 -32 274 22 63 10 86 -79 153 l-75 57 -68 -36 c-37 -20 -78
-36 -91 -36 -22 0 -23 -3 -18 -37 3 -21 22 -159 41 -308 66 -502 110 -780 123
-778 155 33 220 37 552 37 265 1 378 -3 486 -16 159 -20 198 -33 320 -113 145
-94 154 -98 294 -105 69 -4 133 -11 143 -15 13 -6 17 -19 17 -68 l0 -60 -57
-53 c-44 -40 -71 -56 -113 -67 -395 -105 -535 -137 -597 -137 -38 0 -73 4 -79
8 -6 4 -35 63 -63 132 l-51 125 -68 36 c-64 35 -74 37 -247 54 -164 15 -275
32 -331 50 -25 8 -89 -42 -100 -78 -4 -12 -18 -39 -32 -60 l-26 -38 18 -112
c60 -381 301 -1615 319 -1634 18 -17 1612 252 1694 287 12 5 55 33 95 63 126
92 159 109 220 105 l53 -3 9 -43 9 -44 46 7 c63 10 78 19 91 60 11 34 13 35
64 35 38 0 61 -6 78 -19 24 -20 25 -20 174 14 665 149 1495 368 2169 572 138
42 273 82 300 90 28 9 54 19 59 23 10 10 11 10 -131 582 l-116 468 -41 -8
c-23 -4 -167 -7 -321 -6 -371 1 -492 20 -832 132 -373 124 -972 382 -1122 484
-169 114 -375 306 -530 493 -102 123 -241 328 -310 458 -29 53 -56 97 -59 96
-4 0 -133 -27 -287 -59z m937 -1859 c18 -11 71 -29 117 -40 139 -35 181 -81
181 -200 l0 -70 -37 -10 c-21 -6 -101 -23 -179 -39 -77 -17 -178 -45 -225 -63
-72 -29 -85 -38 -93 -64 -4 -16 -12 -40 -17 -53 -13 -34 -108 -74 -189 -80
-64 -4 -68 -3 -88 23 l-22 28 -93 -29 c-81 -25 -107 -29 -215 -29 -142 0 -142
0 -142 89 0 53 3 61 35 93 19 19 35 38 35 42 0 4 51 18 113 30 158 31 145 23
139 83 -3 31 -12 58 -23 69 -23 23 -27 132 -6 146 6 4 89 11 182 14 l170 5 75
37 c69 34 81 37 162 37 68 0 94 -4 120 -19z"/>
<path d="M20530 12403 c-207 -180 -419 -340 -701 -528 -108 -71 -204 -135
-215 -141 -17 -10 -17 -19 19 -210 72 -385 119 -736 154 -1144 31 -367 23
-1466 -13 -1688 l-5 -33 28 15 c50 25 369 249 490 343 488 377 822 758 954
1086 18 45 38 87 44 93 15 15 64 291 75 418 5 56 18 189 29 296 11 107 25 269
32 360 13 172 16 886 5 898 -11 10 -21 -12 -72 -153 -26 -71 -56 -154 -66
-182 l-19 -53 -53 0 c-41 0 -57 5 -72 21 -10 11 -89 72 -176 135 -87 63 -158
120 -158 125 0 19 -72 204 -106 272 -34 69 -81 137 -93 137 -3 -1 -40 -30 -81
-67z"/>
<path d="M9230 12278 c-15 -6 -68 -7 -131 -3 l-106 7 -83 -100 -83 -100 -93
-26 c-132 -37 -175 -35 -227 9 -37 32 -46 35 -101 35 -34 0 -77 3 -96 6 -43 7
-35 13 -629 -485 l-111 -93 0 -57 c0 -127 -26 -282 -109 -651 l-39 -175 40
-100 c48 -121 101 -228 136 -276 58 -78 170 -188 235 -228 l67 -43 58 20 c84
30 390 140 438 157 l41 16 27 137 c52 261 33 223 149 285 l102 55 171 11 c94
6 204 11 243 11 l71 0 0 -55 c0 -38 -8 -75 -27 -118 -14 -34 -45 -154 -68
-267 -24 -113 -67 -298 -96 -412 -30 -114 -51 -210 -47 -213 10 -10 321 23
443 46 55 10 134 19 176 19 l75 0 -28 153 c-127 678 -252 1497 -329 2157 -18
151 -35 278 -38 281 -3 4 -17 2 -31 -3z"/>
<path d="M19333 11565 c-59 -41 -470 -264 -728 -394 -791 -400 -1646 -753
-2682 -1110 -177 -60 -333 -113 -347 -117 -14 -3 -26 -11 -26 -18 0 -6 16 -88
36 -181 25 -121 124 -624 124 -630 0 0 30 1 67 3 63 2 83 -3 283 -77 l214 -79
36 -89 c38 -94 76 -165 108 -198 10 -12 47 -29 80 -39 l61 -19 3 -96 3 -96
118 -20 c126 -22 137 -28 137 -81 l0 -31 54 18 c101 34 447 100 511 97 l59 -3
11 -44 c6 -25 16 -46 23 -49 16 -5 218 34 297 59 47 14 90 39 150 85 82 62 87
64 144 64 68 0 148 -23 277 -79 50 -21 127 -51 173 -65 72 -23 92 -25 166 -20
l85 7 14 -34 c8 -19 25 -71 38 -116 12 -46 25 -83 28 -83 9 0 301 159 501 273
l197 112 6 65 c56 544 60 1165 11 1720 -41 455 -168 1266 -200 1277 -6 2 -20
-4 -32 -12z"/>
<path d="M15110 9799 c-185 -59 -532 -161 -783 -230 -129 -36 -229 -69 -239
-79 -9 -10 -34 -28 -55 -41 l-38 -24 80 -5 c66 -5 91 -12 144 -40 35 -19 83
-53 108 -77 40 -40 48 -43 96 -43 29 0 112 -10 184 -22 l133 -22 65 -78 c36
-43 76 -80 88 -83 12 -2 105 -16 206 -31 164 -23 190 -25 243 -14 33 7 62 19
65 25 4 13 -34 218 -107 565 -49 234 -51 240 -59 239 -3 0 -62 -19 -131 -40z"/>
<path d="M21067 9445 c-114 -148 -398 -424 -617 -601 -136 -110 -312 -237
-515 -372 l-200 -133 -33 -197 c-64 -386 -175 -838 -288 -1178 -100 -302 -273
-714 -390 -931 -25 -46 -43 -83 -40 -83 11 0 181 125 301 220 133 106 341 304
420 399 28 33 55 60 60 61 22 1 342 508 502 795 110 198 285 543 368 728 152
341 332 820 429 1142 69 227 68 225 64 225 -2 0 -30 -34 -61 -75z"/>
<path d="M3110 9200 c0 -5 24 -91 54 -192 255 -861 651 -1709 1139 -2437 60
-91 112 -173 115 -183 2 -10 9 -18 14 -18 6 0 38 -24 71 -54 305 -266 871
-480 1602 -606 164 -28 391 -60 426 -60 13 0 1 28 -53 123 -418 726 -774 1637
-1003 2563 l-47 192 -67 7 c-932 95 -1708 314 -2155 609 -53 35 -96 60 -96 56z"/>
<path d="M11015 8834 c-170 -29 -427 -70 -570 -90 -143 -21 -263 -40 -266 -43
-3 -3 3 -47 14 -97 l20 -92 61 -24 62 -25 69 45 69 45 126 5 c92 3 168 -2 290
-18 91 -12 193 -24 226 -27 l61 -6 30 44 c17 24 43 68 58 98 25 50 95 223 95
236 0 8 -12 6 -345 -51z"/>
<path d="M9115 8584 c-1160 -119 -2302 -152 -3228 -93 -103 7 -189 10 -192 7
-5 -5 67 -286 126 -491 241 -836 565 -1604 960 -2278 l68 -115 173 -12 c722
-50 1565 -40 2438 28 428 34 1222 119 1236 133 3 3 -26 95 -64 204 -167 477
-331 1013 -462 1508 -23 88 -59 221 -80 295 -20 74 -52 196 -70 271 l-34 136
-75 48 c-42 26 -134 84 -206 129 -71 45 -161 94 -200 108 l-70 26 -13 61 c-16
73 19 69 -307 35z"/>
<path d="M10702 8351 c-36 -45 -39 -59 -17 -87 8 -11 14 -41 14 -74 l0 -55
-59 -42 c-85 -61 -125 -60 -248 6 -66 35 -91 45 -88 33 3 -10 41 -159 85 -332
44 -173 91 -353 104 -400 39 -137 175 -593 222 -745 47 -150 281 -844 287
-850 2 -2 78 7 168 20 91 14 194 25 230 25 64 0 66 -1 123 -51 56 -50 57 -51
57 -105 0 -45 -3 -54 -17 -54 -32 -1 -463 -67 -468 -72 -3 -2 40 -117 94 -254
214 -539 421 -979 639 -1359 83 -146 179 -304 197 -323 9 -10 49 -7 211 18
443 68 1030 177 1431 265 86 19 176 35 200 35 40 0 43 -2 52 -37 6 -21 11 -61
11 -90 0 -41 -4 -53 -17 -57 -46 -13 -521 -111 -761 -157 -287 -54 -736 -129
-894 -150 -54 -7 -98 -16 -98 -19 0 -20 161 -222 281 -352 149 -161 311 -289
468 -368 l82 -42 107 17 c292 44 686 119 971 184 73 17 160 31 192 31 l59 0 0
-35 c0 -19 4 -35 8 -35 5 0 118 32 251 70 133 39 243 70 246 70 3 0 5 20 5 45
0 53 -5 50 163 101 l128 38 64 68 c62 65 144 179 179 245 22 43 90 73 167 73
l59 0 0 -52 c-1 -46 -7 -63 -50 -128 -27 -41 -48 -76 -46 -77 4 -4 212 73 391
145 204 82 393 166 574 256 83 42 157 76 164 76 25 0 510 297 518 317 2 5 56
47 119 94 272 201 608 515 824 769 84 98 287 359 309 397 4 7 -30 -9 -75 -34
-276 -153 -836 -412 -1270 -587 -200 -81 -245 -96 -292 -96 l-56 0 0 52 c0 29
8 72 18 95 l17 42 178 71 c565 224 1133 493 1555 735 l174 100 67 120 c203
359 383 769 519 1185 65 197 171 583 197 715 37 190 65 347 71 401 l7 58 -34
-21 c-84 -51 -281 -159 -469 -258 -113 -59 -212 -116 -221 -127 -9 -11 -51
-102 -93 -202 -43 -99 -109 -238 -148 -308 -95 -173 -211 -441 -290 -668 -16
-47 -61 -168 -99 -270 l-70 -185 -52 -27 c-624 -321 -1281 -541 -1977 -662
-487 -85 -844 -111 -1423 -103 -670 8 -1145 68 -1787 223 -583 141 -1174 353
-1802 646 l-88 41 0 55 c0 42 5 61 20 77 l20 21 -66 28 c-62 27 -67 32 -100
97 -43 86 -43 126 -4 249 17 52 33 126 36 165 10 137 7 131 83 170 l69 34 -5
83 -5 83 76 60 c65 51 79 68 106 127 16 38 30 76 30 86 0 30 -110 436 -124
457 -7 11 -52 54 -100 95 -81 71 -86 78 -92 123 -7 47 -8 49 -62 73 -75 33
-93 31 -130 -15z m5038 -4524 l0 -62 -40 -13 c-22 -6 -60 -12 -85 -12 l-45 0
0 53 c0 47 3 54 33 74 22 15 48 22 85 22 l52 1 0 -63z"/>
<path d="M4830 5861 c0 -3 25 -35 57 -71 438 -503 904 -935 1448 -1343 351
-262 845 -585 965 -628 25 -9 95 -37 155 -62 209 -86 487 -160 804 -213 80
-13 146 -23 147 -21 1 1 -52 45 -119 98 -213 169 -346 288 -563 504 -369 369
-655 718 -955 1171 l-74 112 -70 6 c-640 59 -1314 223 -1727 421 -37 17 -68
29 -68 26z"/>
<path d="M19040 5753 c-52 -36 -137 -93 -188 -126 -90 -57 -96 -64 -170 -176
-42 -64 -126 -181 -185 -260 l-109 -145 117 109 c145 135 384 382 528 543 60
67 107 122 105 122 -2 0 -46 -30 -98 -67z"/>
<path d="M10735 5525 c-16 -7 -629 -73 -875 -94 -268 -24 -571 -46 -885 -63
-308 -17 -1566 -17 -1799 0 -93 7 -170 11 -172 9 -5 -5 161 -248 264 -387 429
-577 954 -1101 1467 -1461 l80 -57 195 -13 c289 -21 1160 -18 1490 4 432 29
1222 106 1236 120 3 2 -35 67 -83 143 -265 426 -556 1025 -812 1674 -42 108
-52 125 -72 127 -13 1 -28 0 -34 -2z"/>
<path d="M11855 3404 c-18 -5 -566 -63 -740 -78 -510 -45 -667 -51 -1336 -51
-480 0 -652 -3 -640 -11 106 -72 505 -268 716 -352 339 -135 764 -253 1035
-288 30 -4 57 -10 60 -15 24 -36 889 -47 1265 -16 121 10 269 24 329 30 l109
12 -95 62 c-208 137 -408 335 -624 619 -38 50 -74 89 -79 88z"/>
<path d="M8185 3360 c112 -52 411 -174 570 -233 193 -72 677 -227 704 -227 3
0 -66 35 -154 78 -159 78 -388 206 -518 289 -68 43 -70 44 -230 64 -138 17
-254 34 -427 64 -23 4 -5 -7 55 -35z"/>
</g>
</svg>
